# xmcd
# Copyright (C) 1995-1998 Ti Kan
#
# Track frame offsets:
#       150
#       19506
#       32788
#       52869
#       68363
#       82866
#       96988
#       107473
#       124724
#       143699
#
# Disc length: 2041 seconds
#
# Revision: 0
# Processed by: cddbd v1.5.2PL0 Copyright (c) Steve Scherf et al.
# Submitted via: CD-Transfer v1.0
#
DISCID=6c07f70a
DTITLE=Emaus Ii - 
DYEAR=2009
DGENRE=
TTITLE0=Panie Do Kogoz Pojdziemy Dzis
TTITLE1=Szachownica
TTITLE2=Psalm 119
TTITLE3=W Drodze Do Emaus
TTITLE4=Oddajmy Czesc
TTITLE5=Solo Spiewam
TTITLE6=Ruszaj Tam
TTITLE7=Niepokalana
TTITLE8=Banicja
TTITLE9=Solo Beatbox
EXTD=
EXTT0=
EXTT1=
EXTT2=
EXTT3=
EXTT4=
EXTT5=
EXTT6=
EXTT7=
EXTT8=
EXTT9=
PLAYORDER=
